<svg class="icon" style="width: 1em;height: 1em;vertical-align: middle;fill: currentColor;overflow: hidden;" viewBox="0 0 1024 1024" version="1.1" xmlns="http://www.w3.org/2000/svg"><path d="M93.090909 581.818182v279.272727h837.818182V581.818182h93.090909v372.363636H0V581.818182h93.090909zM0 93.090909h1024v372.363636h-93.090909V186.181818H93.090909v279.272727H0V93.090909z" fill="#979797" /><path d="M628.363636 558.545455v-69.818182h186.181819v69.818182h-186.181819z m256 0v162.90909h-69.818181v-162.90909h69.818181z m-69.818181 232.727272h-186.181819v-69.818182h186.181819v69.818182z m-256-69.818182v-162.90909h69.818181v162.90909h-69.818181z m0-232.727272v-162.909091h69.818181v162.909091h-69.818181z m69.818181-232.727273h186.181819v69.818182h-186.181819v-69.818182z m256 69.818182v162.909091h-69.818181v-162.909091h69.818181zM418.909091 558.545455h69.818182v162.90909h-69.818182v-162.90909z m0 232.727272h-186.181818v-69.818182h186.181818v69.818182zM162.909091 721.454545v-162.90909h69.818182v162.90909H162.909091z m69.818182-232.727272h186.181818v69.818182h-186.181818v-69.818182z m-69.818182 0v-162.909091h69.818182v162.909091H162.909091z m69.818182-232.727273h186.181818v69.818182h-186.181818v-69.818182z m256 69.818182v162.909091h-69.818182v-162.909091h69.818182z" fill="#00A2FF" /></svg>