<svg class="icon" style="width: 1em;height: 1em;vertical-align: middle;fill: currentColor;overflow: hidden;" viewBox="0 0 1024 1024" version="1.1" xmlns="http://www.w3.org/2000/svg"><path d="M51.825778 490.851556h912.554666v463.260444H51.825778z" fill="#323233" opacity=".145" /><path d="M895.744 995.185778H810.666667a23.409778 23.409778 0 0 1-23.992889-22.855111 23.438222 23.438222 0 0 1 22.855111-23.992889h86.257778a51.996444 51.996444 0 0 0 52.295111-51.555556v-83.768889a23.765333 23.765333 0 0 1 47.516444 0v83.768889a99.228444 99.228444 0 0 1-99.228444 98.446222l-0.625778-0.042666z m-682.353778 0H128.284444A99.256889 99.256889 0 0 1 28.444444 896.768v-83.768889a23.765333 23.765333 0 0 1 47.530667 0v83.768889a51.996444 51.996444 0 0 0 52.295111 51.584h85.105778a23.438222 23.438222 0 1 1 1.166222 46.848h-1.152z m35.470222-102.926222a69.432889 69.432889 0 0 1-69.319111-69.504v-41.699556c0-73.841778 27.733333-111.175111 83.185778-138.979556a1302.641778 1302.641778 0 0 1 138.666667-55.566222 580.138667 580.138667 0 0 0 73.372444 194.844445c1.564444-31.288889 4.451556-67.555556 9.856-105.955556a237.198222 237.198222 0 0 1-19.441778-36.608 18.275556 18.275556 0 0 1-1.422222-6.4 17.763556 17.763556 0 0 1 17.365334-18.147555h62.307555c2.232889 0.071111 4.423111 0.554667 6.485333 1.422222 9.031111 3.783111 13.297778 14.165333 9.528889 23.196444-5.404444 12.743111-11.904 24.988444-19.441777 36.593778a1153.991111 1153.991111 0 0 1 9.784888 105.969778 580.266667 580.266667 0 0 0 73.344-194.844445 1289.272889 1289.272889 0 0 1 138.666667 55.566223c55.466667 27.804444 83.185778 65.137778 83.242667 138.979555v41.742222a69.432889 69.432889 0 0 1-69.404445 69.447111l-526.776889-0.056888z m204.8-354.133334a211.299556 211.299556 0 0 1-39.125333-40.917333h-14.990222a7.111111 7.111111 0 1 1 0-14.222222h5.489778a211.228444 211.228444 0 0 1-25.827556-64 17.066667 17.066667 0 0 1-2.190222 0.526222c-14.606222 1.208889-23.210667-18.602667-29.255111-48.355556-6.044444-29.752889 2.446222-41.955556 14.691555-43.804444 4.181333-0.568889 8.433778-0.113778 12.401778 1.294222a560.056889 560.056889 0 0 1-0.142222-73.059555 125.923556 125.923556 0 0 1 42.225778-81.550223 198.855111 198.855111 0 0 1 95.288889-32.355555c34.005333 2.446222 66.816 13.582222 95.288888 32.355555a126.222222 126.222222 0 0 1 42.296889 81.550223c1.521778 24.32 1.450667 48.739556-0.213333 73.059555a26.595556 26.595556 0 0 1 12.359111-1.308444c12.288 1.820444 20.551111 14.094222 14.663111 43.818666-5.888 29.724444-14.592 49.493333-29.255111 48.355556a17.905778 17.905778 0 0 1-2.161778-0.526222 210.488889 210.488889 0 0 1-27.136 66.133333 7.111111 7.111111 0 0 1-5.105777 12.046222h-3.043556a210.716444 210.716444 0 0 1-39.168 40.917334c-8.120889 11.548444-31.36 21.219556-58.496 20.408888a73.045333 73.045333 0 0 1-58.538667-20.337777l-0.056889-0.028445z m457.955556-40.917333a7.111111 7.111111 0 1 1 0-14.222222h42.666667a7.111111 7.111111 0 1 1 0 14.222222h-42.666667z m-85.333333 0a7.111111 7.111111 0 1 1 0-14.222222h42.666666a7.111111 7.111111 0 1 1 0 14.222222h-42.666666z m-85.333334 0a7.111111 7.111111 0 1 1 0-14.222222h42.666667a7.111111 7.111111 0 1 1 0 14.222222h-42.666667z m-85.333333 0a7.111111 7.111111 0 1 1 0-14.222222h42.666667a7.111111 7.111111 0 1 1 0 14.222222h-42.666667z m-341.333333 0a7.111111 7.111111 0 1 1 0-14.222222h42.666666a7.111111 7.111111 0 1 1 0 14.222222h-42.666666z m-85.333334 0a7.111111 7.111111 0 1 1 0-14.222222h42.666667a7.111111 7.111111 0 1 1 0 14.222222h-42.666667z m-85.333333 0a7.111111 7.111111 0 1 1 0-14.222222h42.666667a7.111111 7.111111 0 1 1 0 14.222222h-42.666667z m-85.333333 0a7.111111 7.111111 0 1 1 0-14.222222h42.666666a7.111111 7.111111 0 1 1 0 14.222222h-42.666666z m913.578666-263.111111a23.623111 23.623111 0 0 1-23.765333-23.424V126.862222a51.968 51.968 0 0 0-52.295111-51.555555h-85.105778a23.409778 23.409778 0 0 1-23.992889-22.855111 23.438222 23.438222 0 0 1 24.007111-23.992889h85.105778a99.214222 99.214222 0 0 1 99.811556 98.417777v83.783112a23.580444 23.580444 0 0 1-23.608889 23.466666l-0.156445-0.028444z m-919.594666 0a23.623111 23.623111 0 0 1-23.765334-23.424V126.862222a99.228444 99.228444 0 0 1 99.825778-98.389333h85.105778a23.438222 23.438222 0 1 1 1.166222 46.848H128.327111A51.982222 51.982222 0 0 0 76.060444 126.862222v83.783111a23.608889 23.608889 0 0 1-23.637333 23.466667h-0.156444z" fill="#323233" /></svg>