<svg class="icon" style="width: 1em;height: 1em;vertical-align: middle;fill: currentColor;overflow: hidden;" viewBox="0 0 1024 1024" version="1.1" xmlns="http://www.w3.org/2000/svg"><path d="M516.266667 345.6l-209.066667 147.2 87.466667 236.8h247.466666l85.333334-245.333333z" fill="#4C64FE" opacity=".6" /><path d="M881.066667 462.933333l-10.666667-40.533333-330.666667 87.466667V209.066667h-42.666666v296.533333L162.133333 424.533333l-10.666666 42.666667 332.8 81.066667-211.2 309.333333 36.266666 23.466667L518.4 576l202.666667 307.2 36.266666-23.466667-204.8-309.333333z" fill="#4C64FE" /><path d="M633.6 128v170.666667h-49.066667V206.933333c0-14.933333 0-19.2-2.133333-25.6 0-2.133333-2.133333-6.4-6.4-6.4-2.133333 0-10.666667-2.133333-21.333333-2.133333h-6.4v-17.066667c25.6-2.133333 40.533333-14.933333 53.333333-25.6h32V128zM772.266667 268.8V298.666667h-106.666667v-25.6c29.866667-44.8 49.066667-70.4 57.6-83.2 6.4-8.533333 8.533333-17.066667 8.533333-23.466667 0-6.4 0-8.533333-2.133333-8.533333 0-2.133333-6.4-2.133333-8.533333-2.133334-2.133333 0-6.4 0-8.533334 2.133334 0 2.133333-2.133333 8.533333-2.133333 14.933333v17.066667h-44.8v-8.533334-23.466666c0-6.4 2.133333-10.666667 8.533333-17.066667s10.666667-8.533333 17.066667-10.666667 14.933333-2.133333 23.466667-2.133333c19.2 0 32 2.133333 44.8 10.666667 10.666667 8.533333 12.8 17.066667 12.8 32 0 8.533333-2.133333 19.2-8.533334 32-6.4 10.666667-21.333333 34.133333-49.066666 68.266666 2.133333-2.133333 57.6-2.133333 57.6-2.133333zM878.933333 200.533333c6.4 2.133333 10.666667 6.4 17.066667 8.533334 6.4 6.4 6.4 17.066667 6.4 36.266666 0 14.933333 0 21.333333-6.4 29.866667-2.133333 8.533333-8.533333 10.666667-17.066667 17.066667-8.533333 4.266667-19.2 6.4-32 6.4s-23.466667-2.133333-34.133333-6.4c-8.533333-6.4-12.8-8.533333-14.933333-17.066667-2.133333-8.533333-2.133333-19.2-2.133334-34.133333v-14.933334h44.8v40.533334c0 4.266667 2.133333 2.133333 6.4 2.133333s6.4 0 6.4-2.133333v-29.866667c0-6.4 0-10.666667-2.133333-14.933333-2.133333-2.133333 0-2.133333-2.133333-6.4h-19.2V192h21.333333c2.133333 0 2.133333-2.133333 6.4-6.4v-17.066667c0-6.4 0-8.533333-2.133333-10.666666-8.533333-4.266667-8.533333-4.266667-10.666667-4.266667s-6.4 0-6.4 2.133333v25.6h-44.8v-12.8c0-17.066667 2.133333-25.6 10.666667-29.866666s21.333333-10.666667 38.4-10.666667c21.333333 0 38.4 2.133333 42.666666 10.666667s14.933333 17.066667 14.933334 32c0 8.533333 0 17.066667-2.133334 19.2-6.4 2.133333-10.666667 8.533333-19.2 10.666666z" fill="#4C64FE" /><path d="M661.333333 302.933333v29.866667l66.133334 49.066667 106.666666 76.8-121.6 384H311.466667l-125.866667-384 324.266667-234.666667 66.133333 46.933333V213.333333l-64-46.933333L128 448l147.2 452.266667h473.6L896 448l-168.533333-123.733333-27.733334-19.2" fill="#4C64FE" /></svg>