<svg class="icon" style="width: 1em;height: 1em;vertical-align: middle;fill: currentColor;overflow: hidden;" viewBox="0 0 1024 1024" version="1.1" xmlns="http://www.w3.org/2000/svg"><path d="M465.3 716.5H163.8c-24.8 0-45-20.2-45-45v-443c0-24.8 20.2-45 45-45h673c24.8 0 45 20.2 45 45v290.9c0 8.3-6.7 15-15 15s-15-6.7-15-15V228.5c0-8.3-6.7-15-15-15h-673c-8.3 0-15 6.7-15 15v443c0 8.3 6.7 15 15 15h301.5c8.3 0 15 6.7 15 15s-6.7 15-15 15z" fill="#06265B" /><path d="M428.6 811.1H572" fill="#FFFFFF" /><path d="M572 826.1H428.6c-10.2 0-18.5-6.7-18.5-15s8.3-15 18.5-15H572c10.2 0 18.5 6.7 18.5 15s-8.3 15-18.5 15z" fill="#06265B" /><path d="M739.2 498.7c29 0 56.5 6.9 80.8 19.1V273.1c0-16.5-13.5-30-30-30H227.7c-16.5 0-30 13.5-30 30v343.6c0 16.5 13.5 30 30 30h333.2c15.8-84 89.9-148 178.3-148z" fill="#5097FF" /><path d="M523.5 701.5h12.2" fill="#FFFFFF" /><path d="M535.7 716.5h-12.2c-8.3 0-15-6.7-15-15s6.7-15 15-15h12.2c8.3 0 15 6.7 15 15s-6.7 15-15 15z" fill="#06265B" /><path d="M353.4 367.1H315c-6 0-10.9-4.9-10.9-10.9v-38.4c0-6 4.9-10.9 10.9-10.9h38.4c6 0 10.9 4.9 10.9 10.9v38.4c0 6-4.8 10.9-10.9 10.9z" fill="#FFFFFF" /><path d="M353.4 382.1H315c-14.3 0-25.9-11.6-25.9-25.9v-38.4c0-14.3 11.6-25.9 25.9-25.9h38.4c14.3 0 25.9 11.6 25.9 25.9v38.4c0 14.3-11.6 25.9-25.9 25.9z m-34.3-30h30.3v-30.3h-30.3v30.3z" fill="#06265B" /><path d="M426.9 337H653" fill="#FFFFFF" /><path d="M653 352H426.9c-8.3 0-15-6.7-15-15s6.7-15 15-15H653c8.3 0 15 6.7 15 15s-6.7 15-15 15z" fill="#06265B" /><path d="M643.1 478.1h-38.4c-6 0-10.9-4.9-10.9-10.9v-38.4c0-6 4.9-10.9 10.9-10.9h38.4c6 0 10.9 4.9 10.9 10.9v38.4c0 6-4.9 10.9-10.9 10.9z" fill="#FFFFFF" /><path d="M643.1 493.1h-38.4c-14.3 0-25.9-11.6-25.9-25.9v-38.4c0-14.3 11.6-25.9 25.9-25.9h38.4c14.3 0 25.9 11.6 25.9 25.9v38.4c0 14.3-11.6 25.9-25.9 25.9z m-34.3-30H639v-30.3h-30.3v30.3z" fill="#06265B" /><path d="M306.3 448h226.1" fill="#FFFFFF" /><path d="M532.4 463H306.3c-8.3 0-15-6.7-15-15s6.7-15 15-15h226.1c8.3 0 15 6.7 15 15s-6.7 15-15 15z" fill="#06265B" /><path d="M353.4 589.2H315c-6 0-10.9-4.9-10.9-10.9v-38.4c0-6 4.9-10.9 10.9-10.9h38.4c6 0 10.9 4.9 10.9 10.9v38.4c0 6-4.8 10.9-10.9 10.9z" fill="#FFFFFF" /><path d="M353.4 604.2H315c-14.3 0-25.9-11.6-25.9-25.9v-38.4c0-14.3 11.6-25.9 25.9-25.9h38.4c14.3 0 25.9 11.6 25.9 25.9v38.4c0 14.2-11.6 25.9-25.9 25.9z m-34.3-30h30.3v-30.3h-30.3v30.3z" fill="#06265B" /><path d="M426.9 559h38.7" fill="#FFFFFF" /><path d="M465.6 574h-38.7c-8.3 0-15-6.7-15-15s6.7-15 15-15h38.7c8.3 0 15 6.7 15 15s-6.7 15-15 15z" fill="#06265B" /><path d="M751.2 686.5m-32.5 0a32.5 32.5 0 1 0 65 0 32.5 32.5 0 1 0-65 0Z" fill="#06265B" /><path d="M889.1 663h-17.7c-2.8-14.4-8.1-27.8-15.5-39.9l13.4-13.4c6.3-6.3 6.3-16.5 0-22.7l-14.5-14.5c-6.3-6.3-16.5-6.3-22.7 0l-12.6 12.6c-11.8-7.9-25-13.9-39.1-17.4v-19c0-8.8-7.2-16.1-16.1-16.1h-20.5c-8.8 0-16.1 7.2-16.1 16.1v17.7c-14.4 2.8-27.8 8.1-39.9 15.5l-13.4-13.4c-6.3-6.3-16.5-6.3-22.7 0L637.2 583c-6.3 6.3-6.3 16.5 0 22.7l12.6 12.6c-7.9 11.8-13.9 25-17.4 39.1h-19c-8.8 0-16.1 7.2-16.1 16.1V694c0 8.8 7.2 16.1 16.1 16.1h17.7c2.8 14.4 8.1 27.8 15.5 39.9l-13.4 13.4c-6.3 6.3-6.3 16.5 0 22.7l14.5 14.5c6.3 6.3 16.5 6.3 22.7 0L683 788c11.8 7.9 25 13.9 39.1 17.4v19c0 8.8 7.2 16.1 16.1 16.1h20.5c8.8 0 16.1-7.2 16.1-16.1v-17.7c14.4-2.8 27.8-8.1 39.9-15.5l13.4 13.4c6.3 6.3 16.5 6.3 22.7 0l14.5-14.5c6.3-6.3 6.3-16.5 0-22.7l-12.6-12.6c7.9-11.8 13.9-25 17.4-39.1h19c8.8 0 16.1-7.2 16.1-16.1v-20.5c0-8.9-7.2-16.1-16.1-16.1zM751.2 779c-51 0-92.4-41.5-92.4-92.4s41.5-92.4 92.4-92.4 92.4 41.5 92.4 92.4-41.4 92.4-92.4 92.4z" fill="#06265B" /></svg>