<svg class="icon" style="width: 1em;height: 1em;vertical-align: middle;fill: currentColor;overflow: hidden;" viewBox="0 0 1024 1024" version="1.1" xmlns="http://www.w3.org/2000/svg"><path d="M764.928 924.672H288.768c-140.288 0-254.976-114.688-254.976-254.976V542.72c0-134.144 109.568-243.712 243.712-243.712 137.216 0 249.856 111.616 249.856 249.856V563.2h236.544c99.328 0 181.248 80.896 181.248 181.248s-80.896 180.224-180.224 180.224zM278.528 353.28C174.08 353.28 88.064 438.272 88.064 542.72v126.976C88.064 780.288 178.176 870.4 288.768 870.4h476.16c69.632 0 126.976-57.344 126.976-126.976s-57.344-126.976-126.976-126.976H524.288c-27.648 0-50.176-22.528-50.176-50.176v-17.408c0-107.52-88.064-195.584-195.584-195.584z" fill="#4C4C4C" /><path d="M782.336 598.016l-52.224-16.384c5.12-15.36 7.168-30.72 7.168-47.104 0-88.064-71.68-159.744-159.744-159.744-43.008 0-82.944 16.384-112.64 47.104l-37.888-37.888c39.936-39.936 94.208-62.464 151.552-62.464 117.76 0 214.016 96.256 214.016 214.016-1.024 20.48-4.096 41.984-10.24 62.464z" fill="#4C4C4C" /><path d="M500.736 322.56c-18.432 0-34.816-12.288-38.912-30.72L440.32 203.776c-5.12-21.504 8.192-44.032 29.696-49.152 21.504-5.12 44.032 8.192 49.152 29.696l21.504 88.064c5.12 21.504-8.192 44.032-29.696 49.152-3.072 1.024-7.168 1.024-10.24 1.024zM655.36 322.56c-3.072 0-6.144 0-10.24-1.024-21.504-5.12-34.816-27.648-29.696-49.152l21.504-88.064c5.12-21.504 27.648-34.816 49.152-29.696 21.504 5.12 34.816 27.648 29.696 49.152l-21.504 88.064c-4.096 18.432-20.48 30.72-38.912 30.72zM789.504 400.384c-9.216 0-19.456-3.072-26.624-10.24-16.384-15.36-18.432-40.96-3.072-57.344l60.416-67.584c15.36-16.384 40.96-18.432 57.344-3.072 16.384 15.36 18.432 40.96 3.072 57.344l-61.44 67.584c-7.168 9.216-18.432 13.312-29.696 13.312zM863.232 528.384c-19.456 0-36.864-13.312-39.936-33.792-4.096-22.528 10.24-43.008 32.768-47.104l89.088-16.384c22.528-4.096 43.008 10.24 47.104 32.768 4.096 22.528-10.24 43.008-32.768 47.104L870.4 528.384h-7.168z" fill="#FFA028" /></svg>